<svg width="18" height="19" viewBox="0 0 18 19" fill="none" xmlns="http://www.w3.org/2000/svg">
<path fill-rule="evenodd" clip-rule="evenodd" d="M8.26057 0.511269C7.33076 0.61849 6.58422 0.782826 5.91896 1.02671C3.10262 2.05916 0.977109 4.4157 0.257126 7.30398C0.0500084 8.13481 0.00476074 8.52936 0.00476074 9.50474C0.00476074 10.4801 0.0500084 10.8747 0.257126 11.7055C1.05746 14.9161 3.58865 17.4473 6.79926 18.2476C7.63009 18.4548 8.02465 18.5 9.00002 18.5C9.9754 18.5 10.37 18.4548 11.2008 18.2476C14.4114 17.4473 16.9426 14.9161 17.7429 11.7055C17.95 10.8747 17.9953 10.4801 17.9953 9.50474C17.9953 8.52936 17.95 8.13481 17.7429 7.30398C17.0228 4.41492 14.9013 2.06286 12.0811 1.02681C11.6243 0.85899 10.8221 0.655991 10.3029 0.576834C9.95174 0.523277 8.54723 0.478205 8.26057 0.511269ZM9.65145 1.93493C10.4764 2.01504 11.1914 2.19149 11.9353 2.49847C13.723 3.23616 15.2686 4.7818 16.0063 6.56942C16.7944 8.47932 16.7944 10.5302 16.0063 12.4401C15.2686 14.2277 13.723 15.7733 11.9353 16.511C10.0254 17.2992 7.97461 17.2992 6.0647 16.511C4.27709 15.7733 2.73145 14.2277 1.99375 12.4401C1.2056 10.5302 1.2056 8.47932 1.99375 6.56942C2.73145 4.7818 4.27709 3.23616 6.0647 2.49847C7.22431 2.01993 8.48589 1.82173 9.65145 1.93493ZM12.2043 6.49677C12.1255 6.53051 11.3041 7.32602 9.92473 8.70447L7.76841 10.8594L6.86127 9.95517C5.91868 9.01553 5.781 8.90856 5.51212 8.9069C5.32549 8.90574 5.03267 9.0661 4.92541 9.22822C4.8171 9.39188 4.78333 9.65037 4.84495 9.84394C4.87904 9.95109 5.14806 10.2416 6.10787 11.2075C6.91318 12.018 7.3753 12.4573 7.46829 12.5008C7.65161 12.5865 7.88552 12.5857 8.06458 12.4986C8.26835 12.3995 13.0617 7.59898 13.136 7.41954C13.2435 7.16017 13.1719 6.80939 12.9744 6.62783C12.7795 6.44871 12.4484 6.39233 12.2043 6.49677Z" fill="white"/>
</svg>
